<?xml version="1.0" encoding="UTF-8" standalone="no"?>
<!-- Created with Inkscape (http://www.inkscape.org/) -->

<svg
   xmlns:dc="http://purl.org/dc/elements/1.1/"
   xmlns:cc="http://creativecommons.org/ns#"
   xmlns:rdf="http://www.w3.org/1999/02/22-rdf-syntax-ns#"
   xmlns:svg="http://www.w3.org/2000/svg"
   xmlns="http://www.w3.org/2000/svg"
   xmlns:sodipodi="http://sodipodi.sourceforge.net/DTD/sodipodi-0.dtd"
   xmlns:inkscape="http://www.inkscape.org/namespaces/inkscape"
   version="1.1"
   id="svg64"
   width="655.35999"
   height="655.35999"
   viewBox="0 0 655.35999 655.35999"
   sodipodi:docname="tokugawa_large_black.svg"
   inkscape:version="0.92.2 5c3e80d, 2017-08-06">
  <metadata
     id="metadata70">
    <rdf:RDF>
      <cc:Work
         rdf:about="">
        <dc:format>image/svg+xml</dc:format>
        <dc:type
           rdf:resource="http://purl.org/dc/dcmitype/StillImage" />
        <dc:title></dc:title>
      </cc:Work>
    </rdf:RDF>
  </metadata>
  <defs
     id="defs68" />
  <sodipodi:namedview
     pagecolor="#ffffff"
     bordercolor="#666666"
     borderopacity="1"
     objecttolerance="10"
     gridtolerance="10"
     guidetolerance="10"
     inkscape:pageopacity="0"
     inkscape:pageshadow="2"
     inkscape:window-width="1443"
     inkscape:window-height="880"
     id="namedview66"
     showgrid="false"
     inkscape:zoom="1.0101319"
     inkscape:cx="327.67999"
     inkscape:cy="327.67999"
     inkscape:window-x="0"
     inkscape:window-y="0"
     inkscape:window-maximized="0"
     inkscape:current-layer="svg64" />
  <path
     style="fill:#000000;stroke-width:0.31081232"
     d="m 322.2253,646.11304 c -3.26653,-3.60536 -6.34386,-7.77139 -12.96584,-17.5529 -4.1123,-6.07438 -6.69957,-9.22926 -8.21936,-10.02254 -0.4746,-0.24773 -1.43131,-0.45042 -2.12602,-0.45042 -2.57502,0 -5.69588,2.23923 -13.77184,9.88131 -7.64429,7.23364 -8.49815,8.00606 -10.97844,9.93146 -3.64382,2.82866 -4.99413,3.42731 -7.75949,3.44017 -2.04822,0.01 -2.5033,-0.0971 -3.6328,-0.8508 -3.00408,-2.00465 -5.65971,-6.6848 -10.58517,-18.65495 -1.73142,-4.20778 -3.70412,-8.73538 -4.38378,-10.06133 -1.28904,-2.51477 -3.07991,-4.45853 -4.42084,-4.79821 -2.53998,-0.64349 -6.11057,1.08006 -16.86426,8.14052 -15.14792,9.94557 -19.60518,11.22708 -23.57828,6.77904 -2.7277,-3.05374 -4.29082,-7.99438 -7.52741,-23.79222 -2.25025,-10.98349 -3.21262,-13.53163 -5.25677,-13.91873 -2.90273,-0.54964 -5.06228,0.16863 -18.39524,6.11827 -12.29275,5.48544 -15.75384,6.60229 -18.32164,5.91206 -3.31124,-0.89009 -6.7109,-6.77839 -8.01435,-13.88103 -0.59861,-3.26186 -0.51668,-11.63355 0.17669,-18.05467 0.49699,-4.60262 0.5379,-5.86686 0.23671,-7.31624 -1.06017,-5.10177 -5.01499,-5.4609 -21.10098,-1.91619 -9.77797,2.1547 -13.31274,2.75544 -16.26962,2.76505 -2.53902,0.008 -2.99971,-0.0854 -4.7422,-0.96428 -5.585927,-2.81751 -5.748295,-8.2154 -0.90061,-29.94086 3.19901,-14.33675 2.7138,-15.67018 -5.775785,-15.87276 -2.547789,-0.0608 -6.751346,0.12173 -10.209063,0.44333 -8.052628,0.7489 -14.365975,0.76792 -16.396375,0.0494 -1.992618,-0.70518 -3.896592,-1.99075 -5.930188,-4.00406 -2.190574,-2.16871 -2.712013,-3.615 -2.497755,-6.9279 0.205483,-3.17721 1.131842,-6.14336 5.343006,-17.10817 3.854286,-10.03554 4.570127,-12.34555 4.604946,-14.86013 0.05768,-4.16536 -2.33588,-5.48802 -14.049314,-7.76375 -16.239533,-3.15507 -20.765446,-4.52982 -23.459833,-7.12587 -4.009534,-3.86323 -2.676149,-7.93668 7.754142,-23.68867 6.444307,-9.73231 7.725,-11.96032 8.260004,-14.37001 0.449039,-2.02246 -0.01959,-3.34759 -1.761783,-4.98196 -1.928332,-1.80893 -4.921839,-3.34059 -13.530898,-6.92322 -9.176784,-3.81888 -11.574499,-4.93317 -14.292767,-6.64232 -6.124105,-3.85059 -6.709221,-7.83007 -2.083794,-14.17216 1.97666,-2.71028 4.900837,-5.98324 11.401141,-12.761 3.186522,-3.32253 6.410053,-6.88614 7.1634,-7.91909 1.255097,-1.72089 1.369724,-2.03225 1.369724,-3.7207 0,-4.11579 -2.527417,-6.99954 -10.067993,-11.48745 -9.555285,-5.68694 -13.290081,-8.70062 -16.614787,-13.40672 l -1.160121,-1.64214 v -4.05739 -4.0574 l 1.56751,-1.93798 c 2.340706,-2.89393 3.12378,-3.5145 12.199258,-9.66763 11.654644,-7.90179 13.98013,-10.31519 13.087671,-13.5825 -0.509509,-1.86533 -2.195889,-4.15184 -6.549356,-8.88008 -7.750983,-8.41823 -9.247591,-10.10641 -11.806727,-13.31806 -2.829316,-3.55073 -4.577222,-6.61679 -5.090802,-8.92997 -0.814633,-3.66914 1.529371,-6.78724 7.384248,-9.82288 1.714713,-0.88904 6.913952,-3.16496 11.553866,-5.05761 11.300463,-4.6095 14.067838,-6.14385 15.269868,-8.46629 1.316159,-2.54294 -0.0232,-5.44892 -7.054359,-15.30554 -7.666922,-10.74788 -10.110285,-15.34288 -10.385297,-19.53065 -0.190043,-2.8939 0.40951,-4.57169 2.243428,-6.27799 2.801825,-2.60684 7.561009,-4.33467 16.956868,-6.1562 15.349741,-2.9758 16.342046,-3.19685 17.978311,-4.00491 2.224447,-1.09852 2.809705,-2.02531 2.779563,-4.4016 -0.03053,-2.40743 -1.173024,-5.81767 -4.795128,-14.31311 -1.544839,-3.62332 -3.312795,-8.068 -3.928788,-9.87707 -1.040075,-3.05451 -1.120643,-3.5566 -1.12911,-7.03641 -0.0069,-2.82007 0.128423,-4.14503 0.546803,-5.3552 1.219798,-3.52826 3.368339,-5.71329 6.971606,-7.09002 1.554076,-0.59377 2.3514,-0.66731 7.012652,-0.64674 4.861113,0.0215 5.680733,0.11318 10.827794,1.21181 9.789703,2.08959 13.261118,1.65936 15.004234,-1.85955 0.72737,-1.46839 0.77153,-1.84015 0.74193,-6.24531 -0.0271,-4.02661 -0.19338,-5.53859 -1.18504,-10.77317 -2.433094,-12.84342 -2.888838,-16.73862 -2.351526,-20.09829 0.420944,-2.63209 1.165145,-4.1586 2.683346,-5.50409 3.62469,-3.212367 7.05711,-3.237895 22.23989,-0.16543 12.13757,2.45621 17.63263,2.85381 20.52456,1.48507 1.99834,-0.94582 2.35782,-3.591989 1.28272,-9.441987 -1.01337,-5.514069 -1.4177,-12.737774 -0.99308,-17.742195 0.95357,-11.238088 3.96121,-15.512919 10.52371,-14.957594 4.26458,0.360882 8.81413,1.876357 21.09059,7.025397 7.60895,3.191367 9.71244,3.88004 11.97874,3.921796 3.41315,0.06284 4.58176,-1.991466 6.32434,-11.117807 1.92585,-10.086207 3.32118,-16.336296 4.33037,-19.39697 2.79707,-8.483034 6.30945,-11.114674 12.35898,-9.259961 4.07526,1.249425 8.66142,3.943674 18.386,10.801286 9.05926,6.388433 11.64257,7.604874 13.87721,6.534524 2.16805,-1.03845 3.49092,-3.484272 7.88002,-14.569154 4.67758,-11.813427 6.71633,-15.743487 9.55981,-18.428164 1.80715,-1.70622 3.26232,-2.239766 5.63602,-2.066458 4.32788,0.315984 8.97369,3.782232 22.29573,16.634889 4.91745,4.744197 7.94817,7.161154 9.45983,7.544119 2.34813,0.594867 4.0801,-1.201345 10.27459,-10.655672 8.36497,-12.767019 10.40515,-15.413725 13.87722,-18.0027315 l 1.61145,-1.2016186 h 3.58744 3.58743 l 2.10776,1.6975358 c 3.64257,2.9335723 6.49461,6.6745463 13.65998,17.9174143 4.27553,6.708554 6.55293,9.50994 8.16877,10.048218 0.90341,0.300946 1.28485,0.256165 2.52157,-0.296028 1.86393,-0.832228 3.21162,-1.947778 9.08591,-7.520777 14.80182,-14.042624 19.53091,-17.231044 24.04322,-16.210335 4.47646,1.0126 6.89411,4.776126 12.92875,20.125905 3.7716,9.593461 5.07874,12.308983 6.72592,13.97296 1.01538,1.025696 1.34349,1.171905 2.62961,1.17169 1.66015,-2.73e-4 4.20935,-1.092804 7.09895,-3.042416 0.9874,-0.666229 5.21114,-3.539729 9.38605,-6.385564 10.22992,-6.973248 13.71629,-8.691803 17.60136,-8.676336 3.25137,0.01298 5.54248,1.78538 7.54939,5.840348 1.87729,3.793025 3.14872,8.516309 5.15063,19.134061 1.74704,9.265953 2.04886,10.498837 3.10673,12.690533 2.00736,4.158718 3.85315,3.953569 17.93529,-1.993407 14.08702,-5.949045 19.85418,-7.250052 23.97583,-5.408679 3.39126,1.515094 5.01744,5.275595 5.73211,13.255559 0.37984,4.241409 0.0395,11.894812 -0.76383,17.176379 -0.23793,1.564452 -0.52335,4.266722 -0.6342,6.005067 -0.20068,3.146043 -0.19787,3.163583 0.61128,3.806023 2.62682,2.08561 8.62224,2.3543 16.0915,0.72115 14.62247,-3.197203 17.65416,-3.671545 21.53555,-3.369427 5.98926,0.466193 8.58384,3.330907 8.87391,9.797727 0.16869,3.7616 -0.19806,6.99756 -1.79769,15.86144 -2.69074,14.90977 -2.29098,20.12499 1.70605,22.25682 1.29386,0.69009 5.22407,0.60299 8.50755,-0.18852 5.42615,-1.30802 8.46973,-1.71107 13.14804,-1.74117 5.05305,-0.0325 7.1903,0.35797 10.30113,1.88198 2.28906,1.12143 5.12464,3.8644 6.122,5.92207 0.74183,1.53044 0.80949,1.9553 0.68014,4.27104 -0.18726,3.35296 -1.42249,7.03219 -5.94807,17.71645 -4.92148,11.61896 -5.69459,14.40158 -4.59696,16.54538 1.10119,2.15074 3.70979,3.03223 14.78798,4.9971 19.35017,3.43201 24.90393,6.18362 24.90393,12.33859 0,4.2884 -1.80208,7.77257 -11.42125,22.08203 -5.66962,8.43413 -6.85937,11.00731 -6.20145,13.41243 0.66489,2.43063 3.99165,4.53335 12.51817,7.91227 2.89257,1.14628 6.51214,2.58198 8.0435,3.19045 10.24022,4.06881 14.47852,7.69629 13.97782,11.96341 -0.48459,4.1301 -2.91333,7.49936 -14.73592,20.44245 -10.27931,11.25356 -10.86559,12.55268 -7.35553,16.29885 1.95389,2.08532 4.76782,4.18058 13.90954,10.35704 3.86834,2.6136 8.0672,5.69484 9.3308,6.8472 l 2.29751,2.09522 0.0276,4.89155 0.0276,4.89154 -2.27916,2.32305 c -2.83016,2.88464 -5.43252,4.88334 -13.49848,10.36728 -7.37515,5.01428 -9.4191,6.5569 -10.81663,8.16351 -2.36009,2.71315 -2.36847,4.73544 -0.0345,8.30427 1.49918,2.29237 3.70857,4.81782 11.55625,13.20929 9.52317,10.18302 11.07229,13.27292 8.92257,17.79705 -2.02071,4.25266 -4.55469,5.79544 -18.2496,11.11112 -12.3985,4.81248 -15.85396,6.77335 -16.3159,9.25883 -0.40779,2.19401 0.53201,3.99631 7.78936,14.93792 10.91342,16.4537 12.68809,21.10191 9.61919,25.19465 -2.2799,3.04053 -7.70147,4.7841 -22.48828,7.23213 -14.29568,2.36677 -15.73275,3.14127 -15.37534,8.28651 0.19533,2.81236 1.44038,6.84468 5.02273,16.26727 3.61123,9.49845 4.51699,12.47887 4.71291,15.508 0.15081,2.33159 0.0911,2.71696 -0.6622,4.27105 -1.00046,2.06401 -3.82877,4.80377 -6.12624,5.93443 -3.44414,1.69491 -5.90932,1.77947 -18.28152,0.62705 -12.1143,-1.12837 -15.01032,-0.86235 -16.7489,1.53867 -1.01246,1.39825 -0.81688,5.37842 0.58578,11.92083 3.3496,15.62332 4.08066,20.3628 3.79341,24.59291 -0.52029,7.66181 -5.66424,9.90226 -17.08313,7.44052 -2.38212,-0.51356 -6.55855,-1.42981 -9.28097,-2.03611 -11.8578,-2.64086 -17.99984,-2.67445 -19.78062,-0.10822 -0.68484,0.98691 -0.62817,5.19569 0.16409,12.18248 0.79148,6.97995 0.7172,16.3168 -0.15466,19.43865 -0.89016,3.18748 -2.03454,5.38102 -3.55735,6.81882 -2.10987,1.99203 -3.69906,2.50622 -7.20927,2.33256 -3.54845,-0.17552 -5.67962,-0.95263 -16.91444,-6.16762 -11.14889,-5.17513 -13.46796,-5.95697 -15.79383,-5.32482 -3.0009,0.81564 -4.33597,4.06639 -6.99166,17.0237 -2.91907,14.24235 -4.42411,18.57598 -7.41914,21.36258 -3.95208,3.67703 -8.65766,2.27889 -22.1764,-6.58928 -6.15675,-4.03875 -11.89536,-7.1186 -15.03985,-8.07166 -4.75343,-1.44077 -7.24014,-0.32242 -8.26859,3.71867 -1.98838,7.8128 -3.71987,12.78745 -6.42674,18.46429 -3.11317,6.52888 -6.20951,10.75921 -8.71655,11.90882 -3.8638,1.7718 -6.71986,-0.0533 -20.57421,-13.14683 -8.74938,-8.26896 -11.93225,-10.61707 -14.40226,-10.62503 -1.34437,-0.004 -3.52668,1.50536 -5.31988,3.68032 -0.84776,1.02821 -3.38935,4.58978 -5.64803,7.91458 -4.74406,6.98331 -8.53224,12.18776 -11.24141,15.44413 l -1.90443,2.28909 -4.21436,0.0109 -4.21439,0.0109 -1.20238,-1.32713 z m 25.09941,-106.849 c 36.00462,-3.75029 67.42635,-14.9521 96.61313,-34.44246 13.5314,-9.03604 29.6818,-22.76193 33.11678,-28.1453 1.68592,-2.64221 2.45788,-4.82657 3.04305,-8.61089 0.6079,-3.9313 0.69591,-14.76034 0.15371,-18.91404 -2.03741,-15.60848 -7.82432,-28.74379 -16.58997,-37.65654 -3.62508,-3.68596 -5.89013,-5.39302 -9.71877,-7.32463 -3.31622,-1.6731 -6.28156,-2.43024 -11.64271,-2.9728 -12.0931,-1.22384 -19.46657,-3.19443 -31.70997,-8.47456 -30.11416,-12.98711 -57.82917,-33.57261 -72.94459,-54.18003 -3.31154,-4.51474 -5.01553,-7.31677 -5.01553,-8.24751 0,-1.75758 2.82811,-2.09558 10.21096,-1.22033 22.10067,2.62013 53.77844,15.83487 76.25672,31.8114 15.00538,10.66513 21.5738,16.88396 29.22156,27.66629 1.60898,2.26848 3.88937,5.04237 5.0675,6.16416 11.38543,10.84111 29.95701,12.91331 51.25051,5.71849 16.93529,-5.72227 26.0204,-14.19795 29.38791,-27.4166 2.38347,-9.35608 4.28815,-24.24817 4.98449,-38.97228 0.81924,-17.32254 -1.18062,-38.04188 -5.43713,-56.33098 -9.19365,-39.50273 -29.06829,-75.30053 -57.58543,-103.72176 -10.52318,-10.48777 -19.47768,-17.85775 -31.67612,-26.07093 -14.83751,-9.99007 -31.80729,-18.44848 -48.5475,-24.198 -15.21246,-5.2248 -26.84303,-2.97584 -40.6016,7.851 -3.14844,2.47755 -10.66745,9.97816 -12.99208,12.96027 -8.42814,10.8119 -12.27306,21.64197 -11.37788,32.04816 0.36824,4.28065 1.19737,7.43166 3.10839,11.81318 5.83487,13.37819 8.7078,26.43062 9.9,44.9783 0.43895,6.82956 0.17563,23.96771 -0.46977,30.57169 -1.68441,17.2352 -4.74891,31.36938 -9.33623,43.06033 -3.3063,8.42636 -5.60999,12.86562 -6.67638,12.86562 -2.1732,0 -7.92709,-13.34163 -11.2451,-26.0742 -4.39034,-16.84755 -6.62336,-38.85588 -5.7719,-56.88696 0.94595,-20.03181 3.9411,-34.51975 9.85794,-47.68407 3.16385,-7.03922 3.28856,-7.51721 3.43222,-13.1532 0.14981,-5.87772 -0.3096,-9.18683 -1.97154,-14.2005 -4.89363,-14.76301 -17.72543,-28.98941 -33.95165,-37.64162 -6.99269,-3.72867 -12.61573,-4.68331 -19.38592,-3.29122 -3.79334,0.77998 -13.02824,3.84426 -19.64471,6.5184 -56.47556,22.82541 -100.15642,68.46348 -120.99549,126.41691 -9.09506,25.29338 -13.34766,53.06463 -12.23577,79.90453 0.80255,19.37228 3.72573,38.97378 6.84912,45.92684 3.04877,6.78698 9.58198,12.60971 19.58143,17.45195 15.23044,7.37541 34.36028,9.36629 47.48524,4.94195 6.84997,-2.30908 11.4765,-6.09427 16.91932,-13.84259 4.97466,-7.08184 9.22066,-11.78063 15.22092,-16.84409 27.37999,-23.10521 66.41521,-40.75893 94.3467,-42.66848 3.90893,-0.26723 5.28949,-0.0362 5.73943,0.96053 0.42965,0.95186 -0.22618,2.27589 -3.24915,6.55977 -18.76957,26.59847 -58.49874,53.69718 -91.31534,62.28486 -4.74159,1.24083 -9.35946,2.0545 -15.00623,2.64415 -6.92982,0.72361 -10.58726,1.94932 -15.41855,5.1671 -12.61268,8.40039 -20.96595,25.33053 -22.65215,45.91066 -0.42308,5.16381 -0.22411,12.11036 0.44814,15.64546 1.49845,7.87978 5.77504,13.40463 18.4419,23.82476 13.52049,11.12238 25.30802,18.77439 40.68157,26.40889 24.28921,12.06201 48.9744,19.00231 76.10393,21.39673 6.71144,0.59237 31.08369,0.40779 37.74259,-0.28581 z m -97.84161,-23.2866 c -0.72575,-0.15539 -1.47083,-0.37691 -1.65573,-0.49226 -0.65526,-0.40876 -1.18516,-2.29541 -1.97741,-7.04029 -0.44108,-2.64173 -1.28809,-7.05146 -1.88224,-9.7994 -1.15217,-5.32885 -1.12006,-6.40145 0.19171,-6.40145 0.35207,0 2.28198,0.91626 4.2887,2.03613 8.98294,5.01299 18.62131,8.41629 31.28634,11.04719 5.22108,1.08456 5.44976,1.15863 5.71283,1.85061 0.31298,0.82326 -1.02425,1.73757 -4.61238,3.15363 -9.53515,3.763 -26.16148,6.75706 -31.35182,5.64584 z m 143.68127,-0.33538 c -4.99555,-0.69254 -14.55631,-3.25415 -19.87266,-5.32454 -4.00533,-1.5598 -5.23511,-2.6763 -4.04551,-3.67284 0.23131,-0.19376 2.77322,-0.83165 5.64867,-1.41756 12.49862,-2.54662 19.56636,-5.00481 29.77826,-10.35695 2.82621,-1.48124 5.36214,-2.61676 5.72667,-2.56423 1.00324,0.14451 0.98187,1.83608 -0.083,6.57513 -0.5112,2.27488 -1.35181,6.62721 -1.86801,9.67186 -0.93104,5.49145 -1.27629,6.597 -2.18326,6.99142 -0.77663,0.33775 -10.82878,0.41272 -13.10113,0.0977 z M 238.7374,514.11199 c -3.08804,-0.47517 -10.50219,-3.24244 -15.62296,-5.83116 -8.48052,-4.28719 -14.05007,-8.35386 -20.88885,-15.25225 -22.99014,-23.19052 -28.04265,-54.05572 -12.26747,-74.94059 6.61071,-8.75197 14.36623,-12.97383 23.85557,-12.98623 7.87429,-0.0103 13.98855,3.39476 16.99433,9.46427 0.7022,1.41794 1.48585,3.41557 1.74142,4.43921 0.55064,2.20534 0.6018,5.73136 0.11663,8.03794 -1.48019,7.03707 -8.06615,11.92491 -15.34916,11.39152 -4.144,-0.30346 -7.05105,-2.30011 -8.80631,-6.0484 -0.87761,-1.87413 -2.08958,-6.85211 -2.09784,-8.61657 -0.002,-0.47783 -0.20578,-1.35608 -0.45232,-1.95166 -0.52811,-1.2758 -1.64401,-1.46915 -2.64539,-0.45838 -0.5371,0.54213 -0.61873,1.04088 -0.61873,3.7802 0,3.49017 0.49786,5.8928 1.84035,8.88137 1.7933,3.9921 5.75667,9.54182 11.92034,16.69142 7.52419,8.72777 11.02754,14.22124 15.63259,24.51287 4.01851,8.98077 8.01129,22.16731 9.72758,32.12622 0.59291,3.44042 0.63759,6.74913 0.0913,6.75516 -0.21269,0.003 -0.66514,0.058 -1.00544,0.12366 -0.3403,0.0657 -1.3148,0.0122 -2.16556,-0.1186 z m 173.3734,-0.37063 c -0.47137,-0.88899 -0.23991,-2.77123 1.26144,-10.25872 3.29258,-16.42068 8.56303,-30.14521 16.00757,-41.68452 2.44067,-3.78316 3.93495,-5.7356 9.20103,-12.02224 6.96038,-8.30929 9.11118,-11.3249 10.99794,-15.42006 1.46831,-3.18692 1.92404,-5.43233 1.92444,-9.48216 0,-3.52037 -0.24216,-4.1385 -1.62383,-4.1385 -1.24454,0 -1.56075,0.5935 -2.03346,3.81674 -0.62386,4.25381 -1.02396,5.79683 -2.06814,7.97561 -2.15439,4.49538 -6.75082,6.60226 -12.44946,5.70647 -7.14653,-1.12341 -11.96595,-6.95298 -12.01417,-14.5323 -0.0214,-3.33318 0.43853,-5.46811 1.81551,-8.43118 3.07917,-6.62568 9.09659,-10.21355 17.13263,-10.21521 11.71397,-0.003 22.49682,7.64568 28.49027,20.20772 2.00507,4.20254 2.81038,6.5175 3.69334,10.61704 2.56322,11.90074 0.85233,23.60506 -5.27199,36.06671 -7.71206,15.6923 -20.55512,28.72006 -35.70178,36.21516 -6.95373,3.44095 -14.97474,6.253 -17.83591,6.253 -0.88002,0 -1.25643,-0.16619 -1.52543,-0.67356 z M 292.92654,503.09528 c -0.38232,-0.38643 -1.57404,-2.31858 -2.64827,-4.29366 -3.39163,-6.23582 -6.73648,-11.14376 -10.96001,-16.08169 -2.34118,-2.73717 -2.86019,-3.61289 -2.57927,-4.35179 0.28513,-0.75001 2.02678,-0.61092 7.18339,0.57363 6.24944,1.43561 12.40007,2.5222 19.62711,3.4674 9.03721,1.18192 9.67713,1.30861 10.2668,2.03251 0.40772,0.50052 0.45588,0.83141 0.22027,1.51361 -1.02481,2.96733 -11.77414,12.9314 -18.04833,16.72986 -1.0109,0.61201 -1.95692,1.11273 -2.10229,1.11273 -0.14535,0 -0.57708,-0.31617 -0.9594,-0.7026 z m 66.03502,-0.0929 c -5.1781,-2.26877 -18.90694,-15.21649 -18.90694,-17.83119 0,-1.14708 1.19192,-1.49367 8.35287,-2.42871 8.52899,-1.11369 14.51831,-2.14202 21.19154,-3.63846 6.01914,-1.34977 7.41045,-1.5197 7.95363,-0.97143 0.52117,0.52604 0.004,1.45157 -2.40448,4.29881 -4.54016,5.36844 -6.65117,8.51973 -12.18034,18.18258 -0.82263,1.43765 -1.58964,2.38996 -2.07491,2.5762 -0.4234,0.1625 -0.79556,0.28994 -0.82703,0.28322 -0.0314,-0.007 -0.5284,-0.21868 -1.10434,-0.47102 z m -77.48173,-1.26411 c -7.20149,-1.31339 -16.75549,-4.15118 -22.94303,-6.81468 -6.04347,-2.60151 -13.96635,-7.21811 -16.97492,-9.8912 -1.64071,-1.45776 -2.00556,-2.10071 -4.03289,-7.10727 -1.70844,-4.21906 -6.01931,-12.88028 -8.25987,-16.5954 -3.93844,-6.53038 -4.09189,-6.83699 -3.67522,-7.34377 0.2451,-0.29809 0.63687,-0.40308 1.04457,-0.27989 0.35883,0.1084 3.50631,1.85168 6.9944,3.874 8.8698,5.14246 17.90069,9.9226 23.3571,12.36307 2.55227,1.14156 5.7542,2.81071 7.11541,3.70923 6.66259,4.39798 14.90166,13.56001 20.202,22.46518 2.30549,3.8735 2.59,4.89015 1.57028,5.61111 -0.84205,0.5953 -1.18226,0.59605 -4.39783,0.01 z m 86.59446,0.008 c -0.64333,-0.64936 -0.61582,-0.93246 0.27889,-2.87232 1.97979,-4.29238 8.68887,-13.05893 14.53867,-18.99719 4.99,-5.06548 6.82702,-6.43165 11.49098,-8.54569 7.98046,-3.61728 17.87063,-8.82551 28.73431,-15.13169 2.55106,-1.48085 4.8481,-2.65216 5.10453,-2.60292 1.07155,0.20581 0.62746,1.53486 -1.86748,5.58859 -3.53646,5.74598 -6.82754,12.24369 -9.62727,19.00744 l -2.39125,5.77692 -2.10486,1.50871 c -6.85103,4.91054 -15.23174,9.21575 -23.6058,12.12638 -5.005,1.73959 -17.19596,4.63246 -19.52205,4.63246 -0.29838,0 -0.76128,-0.22081 -1.02867,-0.49069 z m -51.37676,-22.47104 c -0.51046,-0.25523 -2.66828,-1.94366 -4.79517,-3.75203 -2.12689,-1.80836 -6.56825,-5.49572 -9.86967,-8.19413 -9.30185,-7.60286 -9.77504,-8.02261 -9.77504,-8.67037 0,-0.91875 1.20696,-1.30652 5.25921,-1.68974 5.95635,-0.56326 12.51168,-1.52176 19.61798,-2.86847 7.17481,-1.3597 7.73659,-1.34577 8.43862,0.20953 0.78397,1.73673 -0.74163,11.17231 -2.70017,16.70013 -1.47403,4.16035 -4.10816,8.76205 -5.00087,8.73633 -0.13575,-0.004 -0.66444,-0.21597 -1.17489,-0.47125 z m 18.72062,-0.45409 c -2.92511,-3.1607 -6.76377,-15.27657 -6.90732,-21.80137 -0.0948,-4.31148 0.46983,-4.4699 9.73629,-2.73161 6.11789,1.14767 12.72427,2.1082 18.49954,2.68973 4.0602,0.40885 4.96354,0.67537 4.96354,1.46441 0,1.00193 -0.8117,1.79449 -7.18435,7.01501 -3.45017,2.82639 -8.36126,6.93605 -10.91353,9.13253 -4.76021,4.09671 -6.18495,5.16054 -6.91394,5.1626 -0.2295,0 -0.80559,-0.41846 -1.28023,-0.9313 z m -34.1889,-0.51615 c -15.86667,-2.54478 -29.80736,-6.29562 -39.90816,-10.73763 -15.31801,-6.73635 -40.68157,-21.61751 -40.68157,-23.86841 0,-0.66897 1.02096,-1.34278 3.09365,-2.04166 3.18613,-1.07429 5.311,-2.37172 8.2296,-5.02492 2.49236,-2.26574 2.82494,-2.46959 4.02924,-2.46959 0.7446,0 2.89447,0.55989 4.96798,1.29384 18.49549,6.54666 38.69775,18.62229 59.48395,35.55579 5.37645,4.3799 6.81794,5.80283 6.81794,6.73011 0,1.20764 -1.27099,1.32615 -6.03263,0.56247 z m 46.32748,0.19564 c -1.65093,-0.68364 -0.64382,-1.87794 6.38828,-7.57529 16.40407,-13.29053 32.08727,-23.44201 46.59057,-30.15736 7.8336,-3.62708 15.90678,-6.63974 17.9497,-6.69819 0.8967,-0.0256 1.37,0.27598 3.1539,2.00993 2.81489,2.73617 4.93044,4.09293 8.41811,5.39879 3.60531,1.3499 4.02911,1.70891 3.31535,2.80849 -1.42844,2.20051 -14.91804,10.54829 -27.26848,16.87454 -15.34608,7.86073 -24.52674,11.2791 -38.98006,14.51402 -10.01277,2.24104 -18.14311,3.41488 -19.56737,2.82507 z m -63.70421,-25.26989 c -0.70933,-0.32507 -2.3103,-1.28245 -3.5577,-2.1275 -7.07274,-4.79138 -18.97521,-11.33469 -27.48128,-15.10765 -5.98242,-2.65356 -6.95797,-3.25571 -6.63807,-4.09717 0.24043,-0.63243 1.43777,-0.89593 10.96918,-2.41407 4.16871,-0.66397 11.26865,-1.80105 15.77765,-2.52685 10.69121,-1.72096 11.41122,-1.76846 13.92145,-0.91803 9.28113,3.14427 30.39724,16.18439 33.68233,20.80034 1.38496,1.94607 0.5391,2.45828 -6.38947,3.86923 -5.71488,1.16378 -15.00136,2.35829 -21.72428,2.79436 -6.68223,0.43343 -7.0443,0.42191 -8.55981,-0.27266 z m 77.54832,0.29403 c -7.17347,-0.47808 -22.39361,-2.74154 -26.18656,-3.8943 -1.8075,-0.54934 -2.15389,-1.07942 -1.51728,-2.32201 1.96302,-3.83166 17.62942,-14.15301 29.71472,-19.57667 5.86356,-2.63146 6.45259,-2.69142 13.92145,-1.41772 3.06271,0.5223 9.81462,1.59121 15.00423,2.37538 14.94696,2.25849 15.77764,2.4482 15.77764,3.60352 0,0.78494 -0.75479,1.25433 -4.31862,2.68586 -7.1984,2.89142 -18.82018,9.1482 -28.4276,15.30449 l -5.05803,3.24108 -2.52143,0.12905 c -1.38679,0.0709 -4.26163,0.0131 -6.38852,-0.12868 z m -37.43322,-9.30469 c -0.25523,-0.0855 -2.50454,-1.80932 -4.99846,-3.83068 -6.63146,-5.37492 -13.47978,-9.84909 -21.20723,-13.85518 -2.93956,-1.52391 -3.65387,-2.3358 -2.80713,-3.19048 0.24228,-0.24457 3.14529,-1.14627 6.45113,-2.00378 7.19855,-1.86729 11.53154,-3.20606 17.85988,-5.51815 5.55605,-2.02994 6.06468,-2.00256 6.41346,0.34513 0.27391,1.84377 0.0114,26.74409 -0.28908,27.41775 -0.27719,0.6215 -0.78587,0.84871 -1.42257,0.63539 z m 5.21973,-0.58168 c -0.34578,-0.42093 -0.42458,-3.08541 -0.42458,-14.35571 v -13.83884 l 0.70304,-0.70947 0.70303,-0.70947 2.39062,0.85933 c 7.65432,2.7514 13.97287,4.77879 19.71065,6.32444 3.5707,0.96188 6.73334,1.96915 7.0281,2.23842 0.88859,0.8117 0.19812,1.47799 -3.69767,3.56807 -7.73259,4.14855 -14.30236,8.48917 -19.99642,13.21154 -5.18318,4.29868 -5.53465,4.48554 -6.41677,3.41169 z m -91.67712,-15.82317 c -0.5409,-0.40604 -0.63182,-0.9891 -0.81903,-5.2516 -0.32995,-7.5127 -1.4462,-10.05995 -6.96425,-15.89227 -3.33456,-3.52442 -3.74188,-4.34305 -2.51341,-5.0513 0.96354,-0.55555 35.9461,-0.54696 43.23383,0.0106 16.01024,1.22486 28.71024,3.15607 40.68158,6.18614 9.52431,2.41072 9.61575,3.44997 0.56767,6.4521 -12.28905,4.07748 -24.69122,6.61959 -55.01601,11.27688 -18.87718,2.89915 -18.40591,2.84338 -19.17038,2.26946 z m 166.89242,-1.17171 c -4.1687,-0.66654 -11.68628,-1.8578 -16.70574,-2.64721 -22.63612,-3.56011 -37.62912,-6.88968 -47.93801,-10.64583 -5.76636,-2.10105 -5.50123,-3.0952 1.32396,-4.96478 16.05063,-4.39655 39.0926,-7.14226 63.16511,-7.52688 16.51722,-0.26393 23.97583,0.28797 23.97583,1.77401 0,0.16869 -1.56616,1.888 -3.48036,3.82061 -5.26076,5.31142 -6.85625,8.94879 -7.21431,16.4471 -0.26002,5.44563 -0.005,5.02239 -3.00066,4.98589 -1.4005,-0.0172 -5.95712,-0.57638 -10.12582,-1.24291 z m -84.3021,-20.31262 c -1.53136,-0.50246 -5.91662,-1.68514 -9.74502,-2.62818 -9.10953,-2.24391 -9.62519,-2.40015 -10.02289,-3.03654 -0.5064,-0.81033 -0.0238,-1.36769 3.24025,-3.7421 4.05588,-2.95044 6.02475,-4.69991 13.38122,-11.89018 3.54415,-3.46406 6.71719,-6.42783 7.05121,-6.58615 0.44323,-0.21007 0.74963,-0.14421 1.13402,0.24378 0.47982,0.48432 0.52681,1.74142 0.52824,14.12975 0,13.10084 -0.0204,13.61436 -0.59897,14.04238 -0.83622,0.61863 -1.76122,0.51942 -4.96806,-0.53276 z m 9.45404,0.68708 c -0.72137,-0.46755 -0.91364,-3.77174 -0.9306,-15.99135 -0.0149,-10.60577 0.025,-11.49235 0.54622,-12.14187 0.49604,-0.61831 0.65063,-0.65457 1.3148,-0.30827 0.414,0.21584 3.39776,3.0207 6.63063,6.23302 6.10301,6.0642 9.55962,9.10567 14.13511,12.43748 1.47873,1.07679 2.78413,2.26169 2.90095,2.63313 0.27175,0.86422 -0.64281,1.65388 -2.25311,1.94541 -2.14493,0.3883 -11.32324,2.66959 -15.71104,3.90497 -5.37083,1.51219 -6.07529,1.64892 -6.63296,1.28748 z M 168.1934,400.4475 c -10.79168,-1.55581 -24.58733,-9.47755 -31.28694,-17.96556 -5.35961,-6.79035 -11.03276,-17.12167 -13.71215,-24.97112 -5.13329,-15.03826 -5.84632,-28.75157 -2.32065,-44.63142 0.97833,-4.4065 1.58796,-5.62088 2.88703,-5.75087 1.16958,-0.11704 1.72473,0.2466 6.54408,4.28655 8.75512,7.3392 18.24865,18.07715 24.23199,27.40834 4.677,7.29394 6.78072,11.69883 10.40977,21.79672 5.83794,16.2441 9.63952,22.46063 15.56217,25.44795 1.97061,0.99395 2.97148,1.15061 3.95538,0.6191 1.33359,-0.7204 0.59644,-2.02713 -2.59144,-4.59384 -3.10042,-2.49631 -4.94384,-4.52813 -5.97893,-6.59006 -0.76855,-1.53094 -0.88561,-2.11587 -0.88561,-4.42496 0,-2.3863 0.10674,-2.87968 1.03459,-4.7821 2.35206,-4.82248 6.89127,-8.18899 11.51665,-8.54125 3.0149,-0.22964 5.34065,0.28519 8.36938,1.85264 4.57725,2.36888 7.86263,6.24623 9.29394,10.96858 0.88731,2.92754 0.69207,8.09463 -0.42105,11.14325 -2.78964,7.64027 -9.58518,14.38584 -16.95484,16.83013 -4.75293,1.57641 -15.01172,2.5671 -19.65337,1.89792 z m 307.56792,-0.0309 c -12.4296,-1.06376 -22.95291,-8.59533 -26.36679,-18.87075 -2.34852,-7.06886 -0.76009,-13.67815 4.48407,-18.6577 3.92364,-3.72571 8.13547,-5.46093 12.50683,-5.1527 4.05712,0.2861 7.30737,2.10536 10.17068,5.69285 2.03089,2.54454 2.83296,4.71069 2.84347,7.67944 0.0145,4.13958 -1.48159,6.37903 -7.99342,11.9639 -2.05799,1.76503 -2.63529,2.74248 -2.04435,3.46121 0.54495,0.66276 2.14468,0.59647 4.18315,-0.17336 5.1411,-1.94157 10.12259,-10.00019 15.619,-25.26705 6.27638,-17.43328 14.15273,-29.69976 27.57647,-42.94715 5.60342,-5.52977 10.75869,-9.98052 12.49123,-10.78416 2.14653,-0.99568 2.77167,-0.17982 4.18244,5.45858 1.3702,5.47632 1.88985,9.50654 2.07293,16.07718 0.36821,13.2159 -2.01425,24.50075 -7.84665,37.16666 -3.17675,6.89877 -9.14866,15.81451 -13.42696,20.04587 -10.16789,10.05625 -24.74553,15.48024 -38.4521,14.30718 z m -192.47528,-1.38169 c -7.52009,-0.89546 -13.509,-1.3127 -25.05861,-1.74588 -10.25396,-0.38459 -11.54301,-0.52167 -12.01558,-1.27788 -0.51819,-0.82922 0.0582,-1.23395 4.81005,-3.37734 11.98805,-5.40742 24.75529,-12.75782 35.51248,-20.44537 5.05597,-3.61322 5.29378,-3.75359 6.83421,-4.03378 1.43244,-0.26055 9.69035,0.80823 15.44011,1.99835 7.60274,1.57362 11.42804,3.03525 11.70203,4.47133 0.37916,1.98722 -11.98791,14.05411 -20.31545,19.82239 -3.88335,2.68988 -9.04394,5.38299 -10.20854,5.32738 -0.45252,-0.0216 -3.46783,-0.35424 -6.7007,-0.7392 z m 77.31528,-0.58753 c -10.5012,-5.69167 -26.42465,-20.03035 -26.42465,-23.79475 0,-1.2085 0.25978,-1.39567 3.46447,-2.49588 4.63874,-1.59253 17.33245,-3.92839 21.74882,-4.00216 2.6608,-0.0445 3.06643,0.15723 9.1938,4.5718 8.65948,6.23885 17.05736,11.24744 27.15666,16.19654 12.61763,6.1832 12.21994,5.96134 12.21994,6.81701 0,1.08004 -0.57579,1.15552 -11.91058,1.56121 -11.52356,0.41244 -15.98237,0.71696 -25.52266,1.74312 -3.91347,0.42098 -7.18501,0.76387 -7.27009,0.76203 -0.0851,-0.003 -1.28015,-0.61335 -2.65571,-1.35892 z m -149.67257,-22.5324 c -0.26069,-0.26314 -0.55968,-1.00087 -0.66441,-1.63939 -1.4503,-8.8419 -5.71713,-14.75881 -13.4816,-18.69523 -0.79457,-0.40285 -1.53185,-0.96172 -1.63839,-1.24198 -0.33743,-0.88755 1.229,-3.07925 10.907,-15.26075 20.8325,-26.22147 29.661,-36.27784 39.17576,-44.62434 3.0328,-2.66042 4.03171,-3.24159 4.95612,-2.88354 0.71794,0.27808 0.5695,1.82141 -0.60826,6.32352 -4.72544,18.06368 -15.98267,43.23845 -29.86608,66.79017 -5.1617,8.75624 -7.21826,11.70997 -8.15322,11.70997 -0.0841,0 -0.36623,-0.21531 -0.62692,-0.47843 z m 229.89679,-1.00484 c -3.69068,-5.14957 -16.05156,-27.30136 -20.41328,-36.58234 -5.20968,-11.08529 -10.97121,-25.35247 -14.32731,-35.47832 -3.00641,-9.07085 -3.26185,-11.39238 -1.25358,-11.39238 2.71273,0 14.02259,11.69504 30.04708,31.07045 7.59037,9.17761 21.07057,26.18127 22.71117,28.64742 1.85947,2.79516 1.75952,3.22827 -1.13621,4.9231 -3.37611,1.97599 -8.51473,7.17462 -10.058,10.17549 -1.29033,2.50906 -2.0846,5.25396 -2.0846,7.20422 0,3.26802 -1.67602,3.95682 -3.48527,1.43236 z m -118.00162,-4.43626 c -2.63615,-1.62244 -10.78685,-3.89499 -17.93542,-5.00072 -4.6442,-0.71833 -6.28886,-1.26458 -6.28886,-2.08878 0,-0.29065 2.61525,-3.20872 5.81168,-6.48454 7.93333,-8.13044 11.59382,-12.49238 15.77353,-18.79619 2.33335,-3.51917 3.10738,-3.94167 3.80894,-2.07919 0.35899,0.9531 1.20073,20.85311 1.20689,28.53251 0.004,4.92962 -0.0537,5.54744 -0.56134,6.01112 -0.69778,0.6374 -0.62016,0.64143 -1.81542,-0.0942 z m 6.51416,-0.85764 c -0.23806,-0.95738 0.1273,-24.55175 0.46689,-30.15096 0.16804,-2.77082 0.34763,-3.79793 0.73183,-4.1857 0.45944,-0.46378 0.57926,-0.46753 1.22834,-0.0383 0.39559,0.26161 1.81792,2.07494 3.16073,4.02957 3.69311,5.37588 7.08134,9.38931 13.82895,16.38072 3.70728,3.84122 6.21459,6.68729 6.34171,7.1986 0.34247,1.37722 -0.54588,1.80009 -5.40697,2.57388 -5.56394,0.88571 -10.70992,2.15898 -15.20352,3.76184 -4.28248,1.52757 -4.86304,1.57607 -5.14796,0.43027 z m 92.82334,-9.97177 c -11.66407,-8.47169 -23.50779,-15.4417 -36.01134,-21.19267 -2.46719,-1.13481 -4.88163,-2.44187 -5.36538,-2.90457 -2.73003,-2.61117 -9.173,-20.42292 -9.17439,-25.36277 -2.1e-4,-0.80359 0.21782,-1.72827 0.50522,-2.14245 0.44982,-0.6482 0.66895,-0.70681 1.98406,-0.53073 3.01368,0.40354 13.57561,3.56686 20.02882,5.99869 4.60509,1.73539 10.28643,4.66679 12.03218,6.20824 2.08569,1.84163 3.05555,3.45023 5.55334,9.21078 2.93179,6.76157 8.99109,19.02187 12.9251,26.15247 3.34709,6.06678 3.85639,7.58243 2.62692,7.81744 -0.2716,0.0519 -2.56864,-1.4126 -5.10453,-3.25443 z m -195.32227,2.55583 c -0.5278,-0.64192 -0.30132,-1.19454 2.99745,-7.31405 3.94677,-7.32163 10.24028,-20.18451 13.23502,-27.05019 3.18575,-7.30357 3.68029,-7.83603 10.36065,-11.15493 2.63734,-1.31028 6.1177,-2.901 7.73414,-3.53496 9.42969,-3.69826 18.67156,-5.99528 20.80483,-5.17093 0.76853,0.29699 0.85076,0.4771 0.85076,1.86362 0,3.7315 -5.48541,20.03474 -8.20919,24.39865 -1.06038,1.69889 -1.51604,1.99117 -6.79504,4.3584 -11.18524,5.01571 -21.13054,10.90357 -36.90481,21.84861 -1.75118,1.21506 -3.3003,2.20919 -3.44249,2.20919 -0.14219,0 -0.42628,-0.20403 -0.63132,-0.45341 z m 251.477,-2.74732 c -4.27967,-3.66725 -5.58189,-4.40301 -9.82758,-5.55274 -2.17117,-0.58797 -2.67162,-0.84749 -3.14294,-1.62977 -0.87758,-1.4566 -2.57498,-11.06949 -3.45985,-19.59429 -0.62848,-6.05455 -0.52243,-27.37976 0.17157,-34.50536 1.17683,-12.08278 3.44843,-27.67339 4.2905,-29.44676 0.54603,-1.14993 1.45234,-1.07136 2.30082,0.19949 0.82433,1.23469 3.78604,8.79675 5.76787,14.7269 4.01281,12.00731 6.68505,24.44831 7.64627,35.59831 0.50213,5.82416 0.74189,29.93883 0.34953,35.15017 -0.38677,5.13671 -0.83582,6.66363 -1.96704,6.68868 -0.11877,0.003 -1.0769,-0.73296 -2.12915,-1.63463 z m -305.27625,1.04809 c -0.23174,-0.1482 -0.5568,-0.88377 -0.72234,-1.63458 -0.48121,-2.18258 -0.68566,-30.48021 -0.26239,-36.31908 1.20817,-16.66641 4.48629,-30.72831 11.17877,-47.95267 2.39678,-6.16855 2.8307,-6.94784 3.79169,-6.80955 0.90013,0.12953 1.21332,1.20918 2.35324,8.11253 4.27833,25.90929 4.74342,48.88164 1.38977,68.64457 -1.36214,8.02699 -1.72575,8.70503 -5.02889,9.37775 -2.33577,0.47571 -5.79628,2.16566 -7.80379,3.81102 -3.98378,3.26505 -4.0571,3.30655 -4.89606,2.77001 z m -7.95899,-11.19673 c -4.96118,-9.16855 -7.34946,-12.96258 -12.84265,-20.40185 -1.84963,-2.50491 -3.57454,-5.15967 -3.83314,-5.89951 -0.65126,-1.86314 -1.19307,-9.76471 -0.95334,-13.90286 0.56575,-9.76547 2.49952,-19.30463 5.95043,-29.35299 1.64073,-4.77751 2.02241,-5.46465 3.03534,-5.46465 0.95166,0 1.74947,1.06436 3.98366,5.31459 3.56527,6.78238 6.1748,14.14166 8.1133,22.88071 l 1.12264,5.06101 -0.49634,4.99626 c -0.68313,6.87656 -1.07864,14.65847 -1.38433,27.23766 -0.25484,10.48723 -0.3834,11.63943 -1.29867,11.63943 -0.141,0 -0.7696,-0.94851 -1.3969,-2.1078 z m 321.88287,1.27995 c -0.31833,-0.38658 -0.44422,-1.92977 -0.50308,-6.16725 -0.1782,-12.82598 -0.71278,-26.82561 -1.16975,-30.63293 -0.28687,-2.39027 -0.40817,-4.89406 -0.29498,-6.08918 0.81824,-8.63953 5.73496,-23.44015 10.14404,-30.53621 2.80882,-4.52059 3.63742,-3.99901 6.2102,3.90899 2.91989,8.97503 4.45242,15.98648 5.16403,23.62584 0.4952,5.31644 0.22754,15.6551 -0.46332,17.89646 -0.34397,1.11597 -1.55304,3.03569 -3.86614,6.13851 -4.50179,6.03885 -7.44726,10.59028 -10.84502,16.75797 -3.21787,5.84112 -3.49655,6.16572 -4.37598,5.0978 z m -291.321,-6.72899 c -0.4838,-0.48831 -0.46507,-2.05489 0.0804,-6.72395 0.83086,-7.11204 1.18431,-16.72402 0.99057,-26.9383 -0.21411,-11.28805 -0.41727,-10.20374 2.90255,-15.49211 5.6205,-8.95329 14.24783,-20.10144 17.67427,-22.83852 1.58863,-1.26903 2.53756,-1.31862 2.98757,-0.15614 1.04127,2.68981 1.75594,8.23364 2.25816,17.51707 0.56829,10.50457 -0.31241,21.3204 -2.0222,24.83454 -0.42812,0.8799 -2.19461,3.35631 -3.92555,5.50314 -1.73094,2.14683 -6.37937,7.97839 -10.32985,12.95902 -6.91571,8.71913 -9.46902,11.70997 -9.99685,11.70997 -0.13631,0 -0.41489,-0.16862 -0.61907,-0.37472 z m 261.25114,-0.32788 c -1.00501,-1.02114 -20.57294,-25.60599 -21.92248,-27.54307 -2.37219,-3.40496 -3.01307,-7.10949 -3.25898,-18.83793 -0.27524,-13.12567 1.25386,-25.67244 3.22161,-26.43461 0.80509,-0.31183 2.36621,0.9375 4.94329,3.95596 5.24906,6.1481 9.49626,11.87738 14.41371,19.44359 l 3.2472,4.99625 0.16126,15.6133 c 0.13269,12.84327 0.27742,16.73722 0.81571,21.94844 0.67151,6.50081 0.60667,7.56067 -0.4626,7.56067 -0.25698,0 -0.77842,-0.31617 -1.15872,-0.7026 z M 280.96914,332.21185 c -0.47525,-0.57801 -0.33295,-1.18212 1.3986,-5.93711 2.72022,-7.46995 4.47023,-13.94713 4.47383,-16.55867 0.003,-1.84913 0.64493,-2.95794 1.71366,-2.95794 1.13755,0 5.03108,2.17912 14.22084,7.95907 13.07987,8.22666 14.69487,9.38402 14.69487,10.53075 0,0.82972 -0.84899,1.03525 -6.03263,1.46034 -8.12625,0.66644 -14.33641,1.84374 -23.95696,4.54169 -5.63166,1.57931 -5.96415,1.62844 -6.51221,0.96187 z m 85.22687,-1.12125 c -8.67442,-2.54148 -14.26324,-3.54566 -25.77674,-4.63138 -3.14318,-0.29642 -4.07704,-0.63146 -4.07704,-1.46274 0,-0.23161 1.77498,-1.59887 3.94441,-3.03831 8.53732,-5.66472 24.33786,-15.40958 25.17562,-15.52689 1.27876,-0.17904 1.48372,0.27873 2.25512,5.03661 0.62847,3.87629 1.99154,8.64008 4.07669,14.24764 2.12986,5.72777 2.16296,7.02433 0.17724,6.9383 -0.28384,-0.0122 -2.88274,-0.71574 -5.7753,-1.56323 z m -33.17946,-12.37683 c -0.7628,-0.27929 -0.3549,-1.8368 1.64608,-6.28556 3.91545,-8.70517 5.34982,-12.82313 7.88891,-22.64831 0.84048,-3.25235 1.68366,-6.10249 1.87373,-6.33367 0.87532,-1.06457 1.73313,-0.48591 4.81015,3.24482 3.744,4.53943 9.08356,10.12985 11.43118,11.96825 3.73822,2.92734 3.84185,3.3517 1.24148,5.08303 -1.73186,1.15308 -25.6607,13.9568 -27.42204,14.67285 -0.59553,0.2421 -1.2568,0.37646 -1.46949,0.29859 z m -16.47371,-1.90532 c -7.03039,-3.62087 -22.46333,-12.01893 -24.13051,-13.13098 -2.444,-1.63019 -2.47091,-2.43629 -0.13178,-3.94664 2.18032,-1.40781 8.25101,-7.54036 12.29063,-12.41589 1.66792,-2.01305 3.31457,-3.81241 3.65922,-3.9986 1.40705,-0.76009 1.95762,0.16824 3.34652,5.64263 2.54198,10.01931 4.50638,15.7674 7.95034,23.26381 1.26246,2.74794 2.25593,5.27729 2.20775,5.62079 -0.16031,1.14235 -1.47209,0.88084 -5.19217,-1.03512 z m 194.7651,-0.55116 c -0.48106,-0.48557 -0.6109,-1.70832 -1.07489,-10.12369 -0.50633,-9.18301 -1.87813,-16.02791 -5.42228,-27.05599 -1.84289,-5.7343 -1.96313,-6.38901 -1.27866,-6.96238 0.59005,-0.49429 1.59369,0.0427 4.71064,2.52067 7.89241,6.27436 15.88908,15.84399 19.67008,23.53921 l 1.30339,2.65271 -0.55989,1.04941 c -0.30794,0.57717 -2.3927,2.60375 -4.63278,4.5035 -2.24008,1.89975 -5.66569,4.93054 -7.6125,6.73508 -1.94677,1.80456 -3.7938,3.3481 -4.1045,3.43012 -0.31073,0.082 -0.76009,-0.0479 -0.99861,-0.28864 z M 140.6329,315.42716 c -0.49086,-0.38441 -2.77187,-2.38859 -5.06891,-4.45372 -2.29704,-2.06513 -5.24675,-4.63319 -6.55493,-5.70682 -2.79322,-2.29241 -3.65413,-3.31381 -3.65413,-4.33532 0,-1.67308 3.93193,-8.3426 7.70246,-13.06526 5.53242,-6.92946 14.83566,-15.58252 17.03312,-15.84273 1.54534,-0.18299 1.48047,0.63193 -0.5446,6.84116 -3.823,11.72205 -5.20238,19.18301 -5.888,31.84792 -0.24509,4.52732 -0.50598,5.41371 -1.59341,5.41371 -0.29651,0 -0.94074,-0.31453 -1.4316,-0.69894 z m 109.29322,-2.31963 c -0.45343,-0.45769 -0.13758,-2.13118 1.35302,-7.16887 0.8576,-2.89834 2.25441,-7.93959 3.10403,-11.20277 1.00995,-3.879 1.75437,-6.14525 2.15024,-6.546 0.6016,-0.60901 0.61687,-0.60731 2.38721,0.26757 2.08083,1.02832 13.91554,7.79562 18.6863,10.68517 3.3994,2.05894 3.88203,2.56936 3.36014,3.55365 -0.36718,0.69252 -0.74143,0.81722 -8.02185,2.6729 -6.82444,1.73947 -12.30732,3.595 -18.01194,6.09566 -4.32322,1.89512 -4.65063,2.00254 -5.00715,1.64269 z M 399.4528,311.4565 c -4.20956,-1.94789 -10.04658,-3.91783 -17.9432,-6.05571 -7.15937,-1.93828 -7.76325,-2.14114 -8.29359,-2.78615 -0.83668,-1.01759 -0.71061,-1.10572 12.19921,-8.52899 4.27497,-2.45815 8.69574,-4.92881 9.82394,-5.49036 2.03779,-1.0143 2.05514,-1.01697 2.6464,-0.40673 0.38458,0.3969 1.09708,2.61169 2.01342,6.25875 0.78003,3.10447 2.11835,8.02266 2.97401,10.9293 1.74183,5.91678 1.8632,7.43526 0.60157,7.52684 -0.42538,0.0309 -2.23517,-0.62026 -4.02176,-1.44695 z m -172.54863,-5.86815 c -0.29565,-0.10041 -0.38689,-1.98184 -0.38746,-7.99002 -9.3e-4,-8.73578 -0.32834,-14.11008 -1.24251,-20.38916 -0.76888,-5.28112 -0.80176,-7.55715 -0.11302,-7.82392 0.64951,-0.25158 2.63628,0.74861 10.1732,5.12142 10.55532,6.12405 14.93609,8.8264 15.1284,9.33226 0.28098,0.73905 -0.26789,1.33902 -4.61933,5.04952 -2.20682,1.88176 -7.03383,6.37311 -10.72669,9.98078 -6.41469,6.26669 -7.33286,7.01789 -8.21259,6.71912 z m 199.30875,-0.1413 c -0.3403,-0.1954 -3.4591,-3.15109 -6.93067,-6.5682 -3.47159,-3.41711 -8.30929,-7.89903 -10.75046,-9.95982 -6.02153,-5.08327 -6.09249,-4.55964 1.21469,-8.9652 8.7518,-5.27654 17.59907,-10.35607 18.38411,-10.55495 1.92831,-0.48852 2.0131,0.34635 0.82904,8.16239 -0.71841,4.74215 -0.82087,6.50788 -0.96039,16.55009 -0.1687,12.14539 -0.18593,12.25465 -1.78632,11.33569 z m -55.70705,-7.56559 c -0.53935,-0.39806 -0.53476,-0.50836 0.11874,-2.8727 2.57308,-9.30931 3.2287,-11.84097 3.90113,-15.06437 0.41677,-1.99771 0.91253,-5.1779 1.10171,-7.06711 0.50114,-5.00421 0.87189,-6.65911 1.57727,-7.04016 0.33037,-0.17847 0.7959,-0.21316 1.03449,-0.0771 0.88151,0.50273 17.19184,17.61109 17.19184,18.03298 0,0.24056 -0.21148,0.65083 -0.46998,0.91174 -1.07239,1.08244 -20.11894,12.13972 -22.46263,13.04044 -1.20536,0.46324 -1.52038,0.48479 -1.99257,0.13627 z m -91.24158,-1.37937 c -3.68133,-1.98407 -16.64025,-9.56578 -18.40725,-10.76929 -1.50682,-1.02631 -1.84415,-1.39411 -1.85145,-2.01875 -0.006,-0.52867 16.6793,-17.80847 17.43157,-18.05244 1.10947,-0.35982 1.49079,0.57554 1.94322,4.76671 0.78245,7.24822 1.78919,12.15084 4.27203,20.80374 1.51425,5.27732 1.60425,5.83413 1.03581,6.4079 -0.63903,0.64502 -1.55119,0.41041 -4.42393,-1.13787 z m 84.25725,-0.62569 c -2.38919,-1.154 -9.50807,-9.04984 -15.2192,-16.8803 l -2.36978,-3.24915 0.007,-2.52777 c 0.004,-1.39027 0.20484,-4.77795 0.44741,-7.52817 1.02289,-11.59717 0.89345,-26.49442 -0.33569,-38.63293 -0.53706,-5.30257 -0.4497,-6.48533 0.47893,-6.48533 0.83141,0 1.71125,1.16916 4.97174,6.60671 4.14312,6.90952 11.00516,17.34908 15.66999,23.83956 2.2217,3.09124 4.30327,6.11226 4.6257,6.71337 0.5153,0.9608 0.58123,1.73465 0.54525,6.40145 -0.0608,7.88984 -1.33531,15.61873 -4.17093,25.29353 -1.97378,6.73433 -2.51244,7.48143 -4.64992,6.44903 z m -75.90438,-1.37471 c -2.8032,-6.21713 -6.03928,-25.46392 -5.66751,-33.70789 l 0.13102,-2.90528 3.10277,-4.21559 c 4.84829,-6.58714 11.12733,-15.93113 15.58043,-23.18565 5.34354,-8.7051 6.24776,-10.04353 6.86645,-10.16381 1.07382,-0.20873 1.22564,0.94925 0.73901,5.63658 -1.25454,12.08393 -1.40834,30.33857 -0.3453,40.98418 0.56534,5.66159 0.58631,7.23588 0.11459,8.60176 -0.81154,2.3498 -10.93387,15.00602 -14.38761,17.9892 -2.5903,2.23738 -3.20738,2.6059 -4.36361,2.6059 -0.94371,0 -1.09368,-0.13889 -1.77024,-1.6394 z m 194.28608,-0.65182 c -0.26057,-0.40144 -1.17338,-3.01544 -2.02847,-5.80889 -1.77901,-5.81188 -4.70307,-13.88173 -7.61593,-21.01847 -3.13762,-7.68737 -3.25589,-8.08149 -2.63432,-8.77806 0.44558,-0.49936 0.80046,-0.55194 2.52919,-0.37477 4.6945,0.48109 13.1232,3.20106 19.41724,6.266 4.47816,2.18069 4.9587,2.67442 4.25312,4.36988 -0.21442,0.51524 -1.38988,2.55277 -2.61218,4.52785 -2.88865,4.66778 -5.48979,10.06032 -7.46138,15.46851 -1.71237,4.69719 -2.06204,5.48755 -2.58329,5.83886 -0.54551,0.36764 -0.76098,0.28395 -1.26398,-0.49091 z m -311.3315,-0.12884 c -0.15494,-0.30056 -0.94107,-2.37322 -1.74697,-4.60592 -1.90156,-5.26818 -5.08612,-11.95004 -7.68075,-16.11582 -3.44317,-5.52812 -3.52888,-6.09432 -1.1518,-7.60897 3.80462,-2.42427 16.60808,-6.82896 21.85588,-7.51894 3.45371,-0.45409 3.65228,0.67951 1.17899,6.73086 -3.5098,8.58732 -5.99634,15.3177 -8.01801,21.70247 -1.142,3.60667 -2.27388,6.87376 -2.51529,7.26019 -0.52328,0.83761 -1.52866,0.91928 -1.92205,0.15613 z m 25.01114,-3.59106 c -0.16178,-0.38643 -0.58471,-2.81039 -0.93986,-5.38659 -0.68068,-4.93757 -2.3364,-15.15553 -3.38728,-20.90398 -0.96131,-5.25847 -0.82296,-6.17593 1.03187,-6.84296 0.82397,-0.29632 6.91567,0.32178 10.71807,1.0875 5.98032,1.20431 12.64123,3.99684 13.82708,5.79687 0.6929,1.05179 0.0318,2.11761 -4.91328,7.92113 -5.36601,6.29752 -7.98619,9.61945 -11.4993,14.57921 -3.20994,4.53173 -4.1912,5.29219 -4.8373,3.74882 z m 258.28814,-3.74719 c -4.21286,-5.93176 -8.83181,-11.66473 -15.16161,-18.81828 -0.30599,-0.34584 -0.77633,-1.16012 -1.04513,-1.80951 -0.48208,-1.16462 -0.47701,-1.19252 0.37195,-2.04471 0.91417,-0.91767 4.1193,-2.38102 8.44014,-3.85346 6.80268,-2.3182 15.60888,-3.49924 16.83833,-2.25827 0.60797,0.61369 0.61558,1.97008 0.0269,4.7951 -0.64948,3.11654 -2.51193,14.39267 -3.55127,21.50126 -0.48421,3.31176 -1.04989,6.22755 -1.25708,6.47952 -0.84431,1.02689 -1.49135,0.4729 -4.66216,-3.99165 z M 249.5209,279.19921 c -5.9929,-3.19565 -22.1035,-12.95042 -22.27255,-13.48576 -0.31509,-0.9978 0.9679,-1.77914 5.93114,-3.61206 5.84882,-2.15998 14.43221,-6.48642 20.32746,-10.24605 3.42806,-2.1862 4.77241,-2.8838 5.4139,-2.80933 0.61335,0.0712 0.88135,0.29776 0.95276,0.80543 0.0546,0.38851 -0.60513,3.26916 -1.46615,6.40145 -1.89285,6.88592 -2.85515,11.14892 -3.90291,17.28991 -1.0574,6.1974 -1.21829,6.6731 -2.2564,6.67128 -0.45472,-9.4e-4 -1.68198,-0.45749 -2.72725,-1.01487 z m 151.69622,0.56671 c -0.24498,-0.24728 -0.61848,-1.61735 -0.83003,-3.0446 -0.8893,-6.00047 -3.31043,-16.75036 -5.29108,-23.49261 -1.00145,-3.40897 -0.959,-4.23977 0.21655,-4.23977 0.9574,0 1.79767,0.43754 5.94088,3.09349 6.85471,4.39412 13.70857,7.79865 21.40178,10.63093 4.12097,1.51714 4.58895,1.85 4.10578,2.92037 -0.42761,0.94725 -2.02155,1.99991 -10.75714,7.10402 -7.86887,4.59769 -13.22203,7.47778 -13.89883,7.47778 -0.24335,0 -0.64293,-0.20233 -0.88791,-0.44961 z m -142.46376,-3.6723 c -0.52841,-0.53336 -0.46274,-1.90539 0.26817,-5.60265 1.52982,-7.73853 3.52704,-15.08384 6.48326,-23.84402 3.27643,-9.70899 17.59818,-47.39351 18.56672,-48.85418 0.70311,-1.06038 1.72432,-0.89857 4.49163,0.71164 1.35138,0.78632 3.57076,1.82087 4.93197,2.299 2.28949,0.80419 2.82261,0.86849 7.11541,0.85816 4.31812,-0.0104 4.84319,-0.0776 7.55875,-0.96673 3.09496,-1.01339 3.90785,-1.02711 4.20849,-0.071 0.24711,0.7859 -0.65186,2.70842 -4.82944,10.32828 -9.51918,17.36284 -20.07684,33.64282 -29.87935,46.07415 -7.81745,9.91393 -16.81158,19.43018 -18.37422,19.44091 -0.0936,6.2e-4 -0.33721,-0.16745 -0.54139,-0.37355 z m 135.6838,0.0973 c -0.94648,-0.34116 -4.85748,-3.87013 -7.47913,-6.74856 -10.7206,-11.77055 -23.80271,-30.21086 -35.2234,-49.65027 -5.32945,-9.0714 -9.90614,-18.00359 -9.75829,-19.04491 0.13327,-0.93851 1.3777,-0.93881 4.321,-9.4e-4 1.7885,0.56984 3.57264,0.87414 5.84546,0.99702 5.16467,0.27921 8.84977,-0.58601 13.70604,-3.21807 2.75635,-1.49392 3.56306,-1.64905 4.29458,-0.82584 0.48475,0.5455 9.71182,24.21444 14.39497,36.92544 5.55537,15.07839 8.59822,25.07391 10.47369,34.40518 1.29398,6.43816 1.18503,7.79542 -0.57492,7.16103 z m -178.22685,-16.4328 c -2.42855,-1.47813 -6.21905,-4.32932 -8.03509,-6.04393 -2.65967,-2.51114 -7.95383,-10.2732 -7.95383,-11.66156 0,-0.32333 0.3342,-0.89734 0.74268,-1.27557 0.79794,-0.73886 1.72237,-1.1191 9.23956,-3.8005 2.68274,-0.95693 8.0669,-3.00173 11.96481,-4.54399 3.8979,-1.54225 7.50575,-2.8041 8.01745,-2.8041 1.3738,0 1.47735,0.84494 0.40989,3.34448 -0.49799,1.16609 -1.61069,3.75478 -2.47266,5.75263 -1.7078,3.95827 -4.95516,12.66084 -6.56127,17.58345 -1.01982,3.12571 -1.95664,4.54672 -2.99649,4.54522 -0.3055,-3.2e-4 -1.36527,-0.4937 -2.35505,-1.09613 z m 218.42055,0.7066 c -0.28446,-0.21468 -1.68988,-3.71576 -3.12311,-7.78015 -2.3656,-6.7083 -4.67142,-12.51446 -7.74604,-19.50475 -0.6202,-1.41003 -1.03063,-2.76303 -0.92359,-3.04459 0.36487,-0.95968 2.19996,-0.52056 8.8374,2.1147 6.18258,2.45468 15.7004,5.99345 19.34648,7.19312 2.35465,0.77476 3.29144,1.61009 3.06836,2.73604 -0.83523,4.21522 -10.99947,15.52641 -16.12154,17.94076 -1.74807,0.82397 -2.58809,0.91075 -3.33796,0.34487 z m -209.03984,-0.79459 c -0.60094,-0.49117 -0.62837,-0.66453 -0.32285,-2.04059 1.36717,-6.15777 11.1023,-28.50766 13.80614,-31.69611 0.7692,-0.90706 2.59824,-2.06339 7.00345,-4.42762 9.54798,-5.12429 18.11435,-10.54962 26.05839,-16.50351 2.04936,-1.53596 3.68621,-2.54096 4.13845,-2.54096 0.70764,0 0.73993,0.0803 0.59618,1.48326 -0.0867,0.84592 -1.71334,5.50856 -3.7857,10.85124 -1.99855,5.15239 -4.74155,12.31889 -6.09555,15.92556 -2.83574,7.55352 -3.39956,8.63929 -5.45391,10.50282 -7.12652,6.46456 -27.27528,17.50823 -34.30226,18.80131 -0.68278,0.12565 -1.18739,0.0165 -1.64234,-0.3554 z m 198.76571,-0.49999 c -9.75306,-3.60519 -19.16538,-8.65219 -27.44112,-14.71422 -3.71888,-2.72413 -5.69016,-4.64356 -6.59175,-6.41846 -0.39877,-0.78506 -1.48694,-3.45493 -2.41809,-5.93305 -1.30871,-3.48289 -7.70797,-20.15724 -9.83823,-25.63519 -0.51782,-1.33157 -0.85459,-3.11067 -0.67717,-3.57737 0.33659,-0.88531 1.50411,-0.357 5.00548,2.26498 7.42155,5.55754 16.3912,11.20729 25.79898,16.2501 3.69132,1.97865 6.05549,3.45365 6.83453,4.26408 2.71954,2.82904 12.54787,25.32043 13.85358,31.70283 0.37944,1.85473 0.36737,2.01176 -0.18581,2.42006 -0.81446,0.60111 -1.16178,0.5512 -4.3404,-0.62376 z M 196.85388,235.28509 c -1.83213,-1.84931 -5.31365,-17.0907 -5.40816,-23.67582 -0.0593,-4.13851 -0.25536,-4.01885 6.38927,-3.90153 6.39121,0.11283 11.98462,-0.30133 18.56752,-1.37482 3.84247,-0.62661 4.98503,-0.7171 5.33655,-0.42262 0.93073,0.77968 0.58536,1.29367 -4.94627,7.36107 -4.36156,4.78402 -8.3526,9.62751 -13.30654,16.14871 -3.69755,4.86734 -5.11868,6.4537 -5.78151,6.4537 -0.1472,0 -0.53009,-0.26491 -0.85086,-0.58869 z m 258.85792,0.26937 c -0.28028,-0.16518 -1.79995,-2.02279 -3.37703,-4.12803 -5.821,-7.77034 -11.06502,-14.09061 -16.44049,-19.8146 -3.42517,-3.64721 -4.04645,-4.49532 -3.78902,-5.17241 0.31366,-0.8251 1.28375,-0.83482 6.10313,-0.0612 6.05828,0.97256 12.44033,1.44227 18.28255,1.34556 2.57416,-0.0426 4.97855,0.0253 5.34311,0.15079 1.2972,0.44672 1.46664,1.65373 0.91616,6.5263 -0.66944,5.92577 -1.76373,11.21191 -3.30879,15.98372 -1.6157,4.99 -2.33739,5.99032 -3.72962,5.16981 z m -10.16353,-2.08408 c -0.25522,-0.0925 -4.43166,-1.75374 -9.28096,-3.6916 -24.48517,-9.78468 -41.31775,-19.29881 -56.92327,-32.17425 -6.01926,-4.96622 -6.10183,-5.09928 -5.22267,-8.4145 0.92401,-3.48445 1.07724,-7.40242 0.426,-10.89456 -0.60674,-3.25355 -0.44769,-3.93807 0.915,-3.93807 2.31245,0 26.69197,14.00384 36.06455,20.71583 7.72068,5.52901 16.57929,13.37695 22.32081,19.77421 6.28891,7.00716 12.64758,14.85598 13.66848,16.87169 0.48713,0.96183 0.4806,1.01522 -0.18141,1.48326 -0.71504,0.50553 -1.00943,0.5497 -1.78653,0.26799 z m -238.54459,-0.59201 c -0.5642,-0.68619 0.29702,-2.24757 3.38205,-6.13167 13.43847,-16.91922 24.70409,-27.18479 40.92467,-37.29175 11.44488,-7.13126 26.02053,-15.09755 27.62347,-15.09755 1.36987,0 1.54719,0.67173 0.94362,3.57475 -0.64951,3.1241 -0.50465,8.55258 0.2869,10.75067 0.27062,0.75152 0.49205,1.93611 0.49205,2.63244 0,1.43052 -0.45405,1.93511 -5.87795,6.53211 -13.51493,11.45453 -32.99912,22.48734 -55.84048,31.61932 -6.18948,2.47455 -10.27435,3.90896 -11.13187,3.90896 -0.21647,0 -0.57758,-0.22378 -0.80246,-0.49728 z m -8.80391,-29.13041 c -1.05058,-0.46727 -1.42672,-1.12629 -1.11369,-1.95125 0.44872,-1.18261 5.80072,-7.26907 10.14405,-11.53614 7.35624,-7.22709 14.42806,-12.34505 22.93996,-16.60192 l 5.04478,-2.52293 5.42302,0.70287 c 5.8261,0.75512 14.13535,1.23827 21.6295,1.25768 3.55826,0.009 4.80055,0.11839 5.25922,0.46218 0.48034,0.36003 0.53204,0.56312 0.25833,1.01485 -0.18822,0.31062 -3.23875,2.28687 -6.77899,4.39167 -9.13652,5.432 -17.17031,10.59888 -22.76371,14.64034 -2.65445,1.91796 -5.36913,3.76525 -6.03262,4.1051 -3.01615,1.5449 -11.77222,3.90381 -19.45892,5.24231 -4.90431,0.85399 -13.37768,1.31708 -14.55093,0.79524 z m 247.87895,-0.0503 c -7.90733,-0.89284 -19.58343,-3.81211 -23.77766,-5.94494 -0.96045,-0.4884 -3.84115,-2.40404 -6.40148,-4.25696 -5.32409,-3.85305 -15.00312,-10.07308 -23.03527,-14.80315 -3.02816,-1.78326 -5.88206,-3.55786 -6.34199,-3.94355 -0.81648,-0.68465 -0.82205,-0.71238 -0.23577,-1.171 0.46989,-0.36756 1.58024,-0.47213 5.10453,-0.48074 7.97792,-0.0195 17.36416,-0.54415 22.63288,-1.26509 l 5.1355,-0.7027 3.28345,1.76982 c 10.19777,5.49675 19.11346,11.9328 26.46028,19.10106 4.25062,4.14732 8.40097,9.15231 8.40097,10.1309 0,0.30001 -0.29294,0.81316 -0.65099,1.14034 -0.5572,0.50916 -1.19233,0.60229 -4.40846,0.64641 -2.06659,0.0284 -4.84129,-0.0709 -6.16599,-0.2204 z m -253.90813,-4.83627 c -0.55138,-0.6706 -0.21308,-4.53844 0.79769,-9.12016 2.69285,-12.20648 9.18509,-26.63026 12.347,-27.43128 0.42674,-0.10811 1.98491,0.27635 3.91732,0.96655 1.76481,0.63034 6.00052,2.09703 9.41272,3.25932 7.35003,2.50364 7.56278,2.60557 7.56278,3.62326 0,0.62261 -0.44332,1.06079 -2.2429,2.21694 -10.74034,6.90012 -16.8405,12.0874 -26.01576,22.12252 -3.09981,3.39031 -4.64737,4.83228 -5.19229,4.83806 -0.10678,9.8e-4 -0.37073,-0.21272 -0.58656,-0.47521 z m 265.5613,-2.87963 c -4.39905,-4.93281 -11.46852,-11.91767 -15.07433,-14.89396 -3.00322,-2.47889 -9.48314,-6.9983 -13.33273,-9.29887 -2.96158,-1.76992 -2.31687,-2.42457 4.56206,-4.63235 2.75552,-0.88438 7.01382,-2.36613 9.46291,-3.29278 2.4491,-0.92665 4.77027,-1.68482 5.15814,-1.68482 2.72165,0 8.00335,9.86962 10.94978,20.46118 1.9649,7.06325 3.325,14.76447 2.7868,15.77955 -0.68036,1.2832 -1.67178,0.74758 -4.51263,-2.43795 z m -161.29781,1.62221 c -3.08619,-0.66904 -6.86963,-2.70125 -8.96312,-4.81437 -4.48296,-4.52498 -5.49919,-10.78649 -2.7028,-16.65322 1.39633,-2.92946 2.92834,-4.66577 5.0345,-5.70588 3.36116,-1.65988 7.25824,-1.32556 13.05711,1.12013 1.62408,0.68496 3.11547,1.24539 3.3142,1.24539 0.51408,0 1.70664,-1.35244 1.70664,-1.93545 0,-0.7743 -2.38447,-2.7463 -4.48088,-3.70578 -3.33981,-1.52853 -6.36173,-1.95895 -12.36394,-1.76102 -5.7924,0.19101 -8.69435,0.58233 -17.97603,2.42397 -5.82781,1.15634 -6.54159,1.23091 -11.75589,1.228 -17.98627,-0.01 -33.23354,-2.73506 -48.75649,-8.71398 -2.30463,-0.88766 -3.79661,-1.92583 -3.91106,-2.72142 -0.26551,-1.84558 9.00208,-10.15296 16.70264,-14.9721 13.37051,-8.36749 31.12274,-12.86697 46.20324,-11.71066 22.12392,1.69637 38.01446,11.94863 45.33837,29.25145 2.10501,4.9731 2.8215,8.32574 2.8632,13.39766 0.0395,4.81019 -0.27692,6.76528 -1.70392,10.52603 -2.6006,6.85374 -8.34093,12.23006 -14.45471,13.53812 -2.5251,0.54026 -4.53673,0.52989 -7.15106,-0.0369 z m 54.7577,0.27001 c -7.30904,-1.2336 -13.32944,-7.6879 -15.81901,-16.9592 -0.60901,-2.26794 -0.71061,-3.38106 -0.69839,-7.65036 0.013,-4.51838 0.0949,-5.26505 0.85682,-7.80664 1.11356,-3.71462 3.66817,-9.04091 6.05419,-12.62265 6.87333,-10.31798 16.71926,-17.11152 29.40578,-20.2896 9.36243,-2.34536 18.99338,-2.49015 30.31783,-0.4558 7.85313,1.41076 14.27778,3.68002 22.90178,8.0892 11.63307,5.94762 22.36224,15.10699 21.21892,18.11435 -0.56837,1.49504 -15.14336,6.38599 -25.09472,8.42108 -8.17625,1.67209 -12.038,2.05321 -22.58369,2.22885 l -9.8997,0.16488 -5.10453,-0.98089 c -17.67661,-3.39676 -26.24765,-3.61273 -32.01191,-0.80661 -2.38616,1.16162 -4.18386,2.72514 -4.18386,3.63889 0,0.63101 1.02685,1.83654 1.56435,1.83654 0.17977,0 1.53711,-0.50783 3.01631,-1.12851 4.26049,-1.78773 5.55957,-2.11069 8.57283,-2.13125 2.55879,-0.0175 2.96412,0.0676 4.89589,1.02702 2.70271,1.34235 4.47506,3.63914 5.61236,7.27296 2.31622,7.40091 -0.68782,14.41241 -7.76675,18.12789 -3.42282,1.7965 -7.66286,2.51602 -11.2545,1.90985 z M 522.68566,446.6985 c 2.31601,-1.05998 5.10884,-3.53931 6.30225,-5.5948 3.349,-5.76817 2.28448,-13.34783 -2.49977,-17.79915 -3.06021,-2.84724 -6.24358,-3.97624 -10.56789,-3.74791 -2.43876,0.12875 -3.14829,0.30399 -5.1338,1.26792 -6.58237,3.1957 -9.79458,11.08987 -7.20621,17.70975 3.07952,7.87604 11.69284,11.55672 19.10542,8.16419 z m -371.54803,-1.24906 c 2.31601,-1.05999 5.10885,-3.53931 6.30226,-5.5948 3.34898,-5.76817 2.28446,-13.34783 -2.49978,-17.79915 -3.06022,-2.84724 -6.24359,-3.97624 -10.56788,-3.74792 -2.43878,0.12875 -3.14829,0.30399 -5.13381,1.26793 -6.58239,3.1957 -9.79458,11.08987 -7.20622,17.70975 3.07954,7.87604 11.69284,11.55671 19.10543,8.16419 z m 178.51925,-316.3817 c 11.3513,-1.65621 16.09671,-15.92367 8.0435,-24.18331 -5.63336,-5.777763 -14.51816,-5.827237 -20.17994,-0.11236 -5.74035,5.79416 -5.68383,14.70824 0.1294,20.41101 2.22547,2.18319 5.09308,3.55705 8.32865,3.99021 0.51046,0.0683 1.06731,0.14252 1.23746,0.16485 0.17016,0.0223 1.26855,-0.0994 2.44093,-0.2704 z"
     id="path74"
     inkscape:connector-curvature="0" />
</svg>
